<svg width="20" height="20" viewBox="0 0 20 20" fill="none" xmlns="http://www.w3.org/2000/svg">
<path d="M0 11.0737C6.65036 12.5772 7.14286 19.2879 7.14286 19.2879C7.14286 19.2879 7.63536 12.5772 14.2857 11.0737C7.63536 9.57009 7.14286 2.85938 7.14286 2.85938C7.14286 2.85938 6.65036 9.57009 0 11.0737Z" fill="#BBC4D9"/>
<path d="M12.1428 15.7154C15.8003 16.5011 16.0714 20.0011 16.0714 20.0011C16.0714 20.0011 16.3425 16.5011 20 15.7154C16.3425 14.9297 16.0714 11.4297 16.0714 11.4297C16.0714 11.4297 15.8003 14.9297 12.1428 15.7154Z" fill="#BBC4D9"/>
<path d="M9.64282 4.28571C13.3003 5.07143 13.5714 8.57143 13.5714 8.57143C13.5714 8.57143 13.8425 5.07143 17.5 4.28571C13.8425 3.5 13.5714 0 13.5714 0C13.5714 0 13.3003 3.5 9.64282 4.28571Z" fill="#BBC4D9"/>
</svg>
